<svg width="215" height="47.5" xmlns="http://www.w3.org/2000/svg">
 <defs>
  <filter height="200%" width="200%" y="-50%" x="-50%" id="svg_3_blur">
   <feGaussianBlur stdDeviation="0" in="SourceGraphic"/>
  </filter>
 </defs>
 <g>
  <title>background</title>
  <rect fill="none" id="canvas_background" height="402" width="582" y="-1" x="-1"/>
 </g>
 <g>
  <title>Layer 1</title>
  <g fill="#1D181F" transform="translate(-1,-3) scale(0.6000000238418579) " id="SvgjsG1273">
   <path id="svg_2" fill=" #6800A0" d="m84.3,15.1l-31.9,0l0,0l-36.6,0c-4.7,0 -8.5,3.8 -8.5,8.5l0,35l0,1.9l0,6.3c0,1.1 -0.4,2.2 -1.1,3l-4.4,5.4c-0.3,0.4 -0.5,0.9 -0.5,1.4l0,2.5c0,3.2 2.6,5.8 5.8,5.8l85.9,0c3.2,0 5.8,-2.6 5.8,-5.8l0,-2.5c0,-0.5 -0.2,-1 -0.5,-1.4l-4.3,-5.3c-0.7,-0.9 -1.1,-1.9 -1.1,-3l0,-5l0,-3.2l0,-9.3l0,0l0,-25.8c-0.1,-4.7 -3.9,-8.5 -8.6,-8.5zm-25,61.4c0,1.6 -1.3,2.9 -2.9,2.9l-12.7,0c-1.6,0 -2.9,-1.3 -2.9,-2.9l0,-0.6l18.5,0l0,0.6zm25,-14.7l0,5.5l-68.5,0l0,-6.5l0,-2.3l0,-35c0,0 0,0 0,0l40.5,0l28,0c0,0 0,0 0,0l0,35l0,2.3l0,0.6l0,0l0,0.4zm-34.3,-34.3c-4.7,0 -9.2,1.8 -12.6,5.2c-3.4,3.4 -5.2,7.8 -5.2,12.6c0,4.7 1.8,9.2 5.2,12.6c3.4,3.4 7.8,5.2 12.6,5.2c4.7,0 9.2,-1.8 12.6,-5.2c3.4,-3.4 5.2,-7.8 5.2,-12.6c0,-4.7 -1.8,-9.2 -5.2,-12.6c-3.4,-3.3 -7.9,-5.2 -12.6,-5.2zm12.2,10.6l-4.4,0c-0.5,-2 -1.2,-3.9 -2.1,-5.7c2.8,1.1 5,3.1 6.5,5.7zm-13.1,-7c0.7,0 1.4,0 2.1,0c1.4,2.2 2.4,4.5 3.1,6.9l-8.4,0c0.6,-2.4 1.7,-4.7 3.2,-6.9zm-12.9,17.9c-0.3,-1.2 -0.5,-2.5 -0.5,-3.7c0,-1.3 0.2,-2.5 0.5,-3.7l5.2,0c-0.2,1.3 -0.3,2.6 -0.3,3.9c0,1.2 0.1,2.4 0.2,3.5l-5.1,0zm1.5,3.6l4.3,0c0.5,2 1.2,3.9 2,5.7c-2.6,-1.2 -4.8,-3.2 -6.3,-5.7zm4.4,-14.5l-4.4,0c1.5,-2.6 3.8,-4.6 6.6,-5.8c-0.9,1.8 -1.6,3.8 -2.2,5.8zm8.8,21.4c-0.7,0 -1.4,0 -2.1,0c-1.4,-2.2 -2.4,-4.5 -3.1,-6.9l8.4,0c-0.7,2.4 -1.8,4.8 -3.2,6.9zm4,-10.5l-9.9,0c-0.2,-1.2 -0.2,-2.4 -0.2,-3.5c0,-1.3 0.1,-2.6 0.3,-3.9l9.9,0c0.2,1.2 0.2,2.4 0.2,3.6c0,1.2 -0.1,2.6 -0.3,3.8zm0.7,9.4c0.9,-1.9 1.7,-3.8 2.2,-5.9l4.5,0c-1.6,2.7 -3.9,4.7 -6.7,5.9zm8.6,-13.1c0,1.3 -0.2,2.5 -0.5,3.7l-5.3,0c0.2,-1.3 0.3,-2.6 0.3,-3.9c0,-1.2 -0.1,-2.4 -0.2,-3.6l5.2,0c0.4,1.3 0.5,2.6 0.5,3.8z"/>
  </g>
  <text font-weight="bold" filter="url(#svg_3_blur)" transform="matrix(24.7821420715739,0,0,23.263916630808808,-3478.6744589122973,-691.9621169442681) " xml:space="preserve" text-anchor="start" font-family="'Times New Roman', Times, serif" font-size="1" id="svg_3" y="31.203125" x="143" stroke-width="0" fill=" #6800A0">AlPonomarev</text>
  <path id="svg_4" d="m7.944471,44.395827" opacity="0.5" fill-opacity="null" stroke-opacity="null" stroke-width="0" stroke="#000" fill="#000000"/>
 </g>
</svg>